<svg width="288" height="199" viewBox="0 0 288 199" fill="none" xmlns="http://www.w3.org/2000/svg">
<g opacity="0.9">
<rect width="288" height="197.16" transform="translate(0 0.919922)" fill="#FFC4E7"/>
<path d="M118.776 94.0799C114.829 94.0799 111.016 93.5199 107.336 92.3999C103.709 91.2799 100.776 89.7333 98.5356 87.7599L102.456 78.4799C104.856 80.2399 107.389 81.5733 110.056 82.4799C112.722 83.3333 115.469 83.7599 118.296 83.7599C121.602 83.7599 124.082 83.1466 125.736 81.9199C127.389 80.6933 128.216 78.8799 128.216 76.4799C128.216 74.2399 127.416 72.5599 125.816 71.4399C124.269 70.2666 121.949 69.6799 118.856 69.6799H109.416V59.8399H117.736C120.402 59.8399 122.536 59.2266 124.136 57.9999C125.736 56.7199 126.536 54.9866 126.536 52.7999C126.536 50.6666 125.789 49.0399 124.296 47.9199C122.802 46.7999 120.642 46.2399 117.816 46.2399C112.429 46.2399 107.629 48.0266 103.416 51.5999L99.4156 42.4799C101.816 40.3999 104.722 38.7999 108.136 37.6799C111.602 36.5066 115.229 35.9199 119.016 35.9199C125.096 35.9199 129.842 37.2799 133.256 39.9999C136.722 42.6666 138.456 46.3999 138.456 51.1999C138.456 54.5066 137.522 57.3599 135.656 59.7599C133.789 62.1066 131.229 63.6799 127.976 64.4799V63.4399C131.816 64.0799 134.802 65.6533 136.936 68.1599C139.069 70.6666 140.136 73.8133 140.136 77.5999C140.136 82.7199 138.216 86.7466 134.376 89.6799C130.589 92.6133 125.389 94.0799 118.776 94.0799Z" fill="#DD2590"/>
<path d="M167.944 94.0799C165.438 94.0799 162.958 93.8133 160.504 93.2799C158.051 92.7466 155.758 92.0266 153.624 91.1199C151.491 90.1599 149.704 89.0399 148.264 87.7599L152.184 78.4799C154.584 80.1866 157.091 81.4933 159.704 82.3999C162.318 83.3066 164.984 83.7599 167.704 83.7599C170.798 83.7599 173.198 83.0399 174.904 81.5999C176.664 80.1066 177.544 78.0799 177.544 75.5199C177.544 72.9599 176.718 70.9066 175.064 69.3599C173.411 67.8133 171.144 67.0399 168.264 67.0399C166.238 67.0399 164.344 67.4133 162.584 68.1599C160.878 68.9066 159.331 70.0533 157.944 71.5999H149.944V36.7999H185.944V46.9599H161.704V62.2399H158.824C160.158 60.5866 161.918 59.3066 164.104 58.3999C166.291 57.4933 168.744 57.0399 171.464 57.0399C175.091 57.0399 178.238 57.8133 180.904 59.3599C183.624 60.8533 185.731 62.9599 187.224 65.6799C188.718 68.3466 189.464 71.4933 189.464 75.1199C189.464 78.8533 188.584 82.1599 186.824 85.0399C185.118 87.8666 182.638 90.0799 179.384 91.6799C176.184 93.2799 172.371 94.0799 167.944 94.0799Z" fill="#DD2590"/>
<path d="M104.924 133.08V126.38L105.564 128.16L99.3845 118.98H102.984L106.864 125.02H106.224L110.104 118.98H113.584L107.424 128.16L108.044 126.38V133.08H104.924ZM117.537 133.3C115.777 133.3 114.404 132.827 113.417 131.88C112.431 130.933 111.937 129.647 111.937 128.02C111.937 126.967 112.144 126.047 112.557 125.26C112.984 124.473 113.571 123.86 114.317 123.42C115.077 122.967 115.964 122.74 116.977 122.74C117.977 122.74 118.811 122.953 119.477 123.38C120.157 123.807 120.664 124.407 120.997 125.18C121.344 125.94 121.517 126.827 121.517 127.84V128.54H114.417V127.04H119.317L118.977 127.32C118.977 126.48 118.804 125.847 118.457 125.42C118.124 124.98 117.637 124.76 116.997 124.76C116.291 124.76 115.744 125.02 115.357 125.54C114.984 126.06 114.797 126.807 114.797 127.78V128.1C114.797 129.087 115.037 129.82 115.517 130.3C116.011 130.78 116.717 131.02 117.637 131.02C118.184 131.02 118.697 130.953 119.177 130.82C119.671 130.673 120.137 130.447 120.577 130.14L121.417 132.14C120.911 132.513 120.324 132.8 119.657 133C119.004 133.2 118.297 133.3 117.537 133.3ZM127.373 133.3C126.493 133.3 125.72 133.087 125.053 132.66C124.387 132.233 123.867 131.627 123.493 130.84C123.12 130.053 122.933 129.107 122.933 128C122.933 126.907 123.12 125.967 123.493 125.18C123.867 124.393 124.387 123.793 125.053 123.38C125.72 122.953 126.493 122.74 127.373 122.74C128.187 122.74 128.913 122.94 129.553 123.34C130.207 123.727 130.633 124.253 130.833 124.92H130.613L130.853 122.94H133.753C133.713 123.38 133.673 123.827 133.633 124.28C133.607 124.72 133.593 125.153 133.593 125.58V133.08H130.593L130.573 131.18H130.813C130.6 131.82 130.173 132.333 129.533 132.72C128.893 133.107 128.173 133.3 127.373 133.3ZM128.293 131.02C128.987 131.02 129.547 130.773 129.973 130.28C130.4 129.787 130.613 129.027 130.613 128C130.613 126.973 130.4 126.22 129.973 125.74C129.547 125.26 128.987 125.02 128.293 125.02C127.6 125.02 127.04 125.26 126.613 125.74C126.187 126.22 125.973 126.973 125.973 128C125.973 129.027 126.18 129.787 126.593 130.28C127.02 130.773 127.587 131.02 128.293 131.02ZM136.05 133.08V125.62C136.05 125.18 136.037 124.733 136.01 124.28C135.997 123.827 135.963 123.38 135.91 122.94H138.81L139.15 125.9H138.69C138.823 125.18 139.037 124.587 139.33 124.12C139.637 123.653 140.01 123.307 140.45 123.08C140.903 122.853 141.417 122.74 141.99 122.74C142.243 122.74 142.443 122.753 142.59 122.78C142.737 122.793 142.883 122.827 143.03 122.88L143.01 125.54C142.73 125.42 142.49 125.347 142.29 125.32C142.103 125.28 141.863 125.26 141.57 125.26C141.01 125.26 140.543 125.367 140.17 125.58C139.81 125.793 139.537 126.107 139.35 126.52C139.177 126.933 139.09 127.433 139.09 128.02V133.08H136.05ZM147.935 133.3C147.028 133.3 146.202 133.2 145.455 133C144.708 132.8 144.075 132.52 143.555 132.16L144.335 130.16C144.855 130.48 145.428 130.733 146.055 130.92C146.695 131.107 147.328 131.2 147.955 131.2C148.542 131.2 148.975 131.107 149.255 130.92C149.535 130.733 149.675 130.48 149.675 130.16C149.675 129.893 149.582 129.687 149.395 129.54C149.222 129.393 148.948 129.287 148.575 129.22L146.515 128.84C145.648 128.667 144.988 128.347 144.535 127.88C144.082 127.413 143.855 126.807 143.855 126.06C143.855 125.407 144.028 124.833 144.375 124.34C144.735 123.833 145.248 123.44 145.915 123.16C146.582 122.88 147.362 122.74 148.255 122.74C149.015 122.74 149.735 122.833 150.415 123.02C151.095 123.207 151.675 123.493 152.155 123.88L151.335 125.82C150.922 125.513 150.442 125.267 149.895 125.08C149.362 124.893 148.848 124.8 148.355 124.8C147.715 124.8 147.255 124.907 146.975 125.12C146.695 125.32 146.555 125.58 146.555 125.9C146.555 126.14 146.635 126.34 146.795 126.5C146.968 126.66 147.228 126.78 147.575 126.86L149.655 127.24C150.548 127.4 151.228 127.7 151.695 128.14C152.162 128.58 152.395 129.187 152.395 129.96C152.395 130.667 152.208 131.267 151.835 131.76C151.462 132.253 150.935 132.633 150.255 132.9C149.588 133.167 148.815 133.3 147.935 133.3ZM159.698 126.02C159.698 124.553 159.971 123.28 160.518 122.2C161.078 121.107 161.878 120.26 162.918 119.66C163.958 119.06 165.191 118.76 166.618 118.76C168.044 118.76 169.278 119.06 170.318 119.66C171.358 120.26 172.158 121.107 172.718 122.2C173.291 123.28 173.578 124.547 173.578 126C173.578 127.48 173.291 128.767 172.718 129.86C172.158 130.94 171.358 131.787 170.318 132.4C169.278 133 168.044 133.3 166.618 133.3C165.191 133.3 163.958 133 162.918 132.4C161.891 131.787 161.098 130.933 160.538 129.84C159.978 128.747 159.698 127.473 159.698 126.02ZM162.958 126.02C162.958 127.473 163.258 128.613 163.858 129.44C164.471 130.253 165.391 130.66 166.618 130.66C167.818 130.66 168.731 130.253 169.358 129.44C169.984 128.613 170.298 127.473 170.298 126.02C170.298 124.553 169.984 123.42 169.358 122.62C168.744 121.807 167.831 121.4 166.618 121.4C165.391 121.4 164.471 121.807 163.858 122.62C163.258 123.42 162.958 124.553 162.958 126.02ZM176.576 133.08V125.2H174.656V122.94H177.436L176.576 123.72V122.26C176.576 120.94 176.916 119.947 177.596 119.28C178.29 118.613 179.323 118.28 180.696 118.28C181.003 118.28 181.33 118.3 181.676 118.34C182.036 118.38 182.35 118.46 182.616 118.58V120.9C182.43 120.833 182.216 120.787 181.976 120.76C181.736 120.72 181.503 120.7 181.276 120.7C180.97 120.7 180.683 120.753 180.416 120.86C180.163 120.967 179.956 121.147 179.796 121.4C179.65 121.64 179.576 121.967 179.576 122.38V123.44L179.156 122.94H182.136V125.2H179.596V133.08H176.576ZM92.2759 158.08V143.98H102.076V146.4H95.2559V149.7H101.596V152.14H95.2559V155.66H102.076V158.08H92.2759ZM102.369 158.08L107.169 152.18V153.52L102.629 147.94H106.189L108.889 151.48H107.809L110.529 147.94H114.069L109.549 153.54V152.16L114.349 158.08H110.769L107.809 154.28H108.889L105.909 158.08H102.369ZM115.181 162.4V150.58C115.181 150.153 115.168 149.72 115.141 149.28C115.115 148.827 115.075 148.38 115.021 147.94H117.921L118.161 149.92H117.941C118.141 149.253 118.561 148.727 119.201 148.34C119.841 147.94 120.575 147.74 121.401 147.74C122.281 147.74 123.055 147.953 123.721 148.38C124.388 148.793 124.908 149.393 125.281 150.18C125.668 150.967 125.861 151.907 125.861 153C125.861 154.107 125.668 155.053 125.281 155.84C124.908 156.627 124.388 157.233 123.721 157.66C123.055 158.087 122.281 158.3 121.401 158.3C120.588 158.3 119.861 158.107 119.221 157.72C118.595 157.333 118.175 156.82 117.961 156.18H118.201V162.4H115.181ZM120.481 156.02C121.188 156.02 121.755 155.773 122.181 155.28C122.608 154.787 122.821 154.027 122.821 153C122.821 151.973 122.608 151.22 122.181 150.74C121.755 150.26 121.188 150.02 120.481 150.02C119.788 150.02 119.221 150.26 118.781 150.74C118.355 151.22 118.141 151.973 118.141 153C118.141 154.027 118.355 154.787 118.781 155.28C119.221 155.773 119.788 156.02 120.481 156.02ZM132.918 158.3C131.158 158.3 129.785 157.827 128.798 156.88C127.811 155.933 127.318 154.647 127.318 153.02C127.318 151.967 127.525 151.047 127.938 150.26C128.365 149.473 128.951 148.86 129.698 148.42C130.458 147.967 131.345 147.74 132.358 147.74C133.358 147.74 134.191 147.953 134.858 148.38C135.538 148.807 136.045 149.407 136.378 150.18C136.725 150.94 136.898 151.827 136.898 152.84V153.54H129.798V152.04H134.698L134.358 152.32C134.358 151.48 134.185 150.847 133.838 150.42C133.505 149.98 133.018 149.76 132.378 149.76C131.671 149.76 131.125 150.02 130.738 150.54C130.365 151.06 130.178 151.807 130.178 152.78V153.1C130.178 154.087 130.418 154.82 130.898 155.3C131.391 155.78 132.098 156.02 133.018 156.02C133.565 156.02 134.078 155.953 134.558 155.82C135.051 155.673 135.518 155.447 135.958 155.14L136.798 157.14C136.291 157.513 135.705 157.8 135.038 158C134.385 158.2 133.678 158.3 132.918 158.3ZM138.794 158.08V150.62C138.794 150.18 138.781 149.733 138.754 149.28C138.741 148.827 138.708 148.38 138.654 147.94H141.554L141.894 150.9H141.434C141.568 150.18 141.781 149.587 142.074 149.12C142.381 148.653 142.754 148.307 143.194 148.08C143.648 147.853 144.161 147.74 144.734 147.74C144.988 147.74 145.188 147.753 145.334 147.78C145.481 147.793 145.628 147.827 145.774 147.88L145.754 150.54C145.474 150.42 145.234 150.347 145.034 150.32C144.848 150.28 144.608 150.26 144.314 150.26C143.754 150.26 143.288 150.367 142.914 150.58C142.554 150.793 142.281 151.107 142.094 151.52C141.921 151.933 141.834 152.433 141.834 153.02V158.08H138.794ZM147.037 158.08V147.94H150.057V158.08H147.037ZM146.917 146.28V143.46H150.157V146.28H146.917ZM156.465 158.3C155.585 158.3 154.812 158.087 154.145 157.66C153.478 157.233 152.958 156.627 152.585 155.84C152.212 155.053 152.025 154.107 152.025 153C152.025 151.907 152.212 150.967 152.585 150.18C152.958 149.393 153.478 148.793 154.145 148.38C154.812 147.953 155.585 147.74 156.465 147.74C157.278 147.74 158.005 147.94 158.645 148.34C159.298 148.727 159.725 149.253 159.925 149.92H159.705L159.945 147.94H162.845C162.805 148.38 162.765 148.827 162.725 149.28C162.698 149.72 162.685 150.153 162.685 150.58V158.08H159.685L159.665 156.18H159.905C159.692 156.82 159.265 157.333 158.625 157.72C157.985 158.107 157.265 158.3 156.465 158.3ZM157.385 156.02C158.078 156.02 158.638 155.773 159.065 155.28C159.492 154.787 159.705 154.027 159.705 153C159.705 151.973 159.492 151.22 159.065 150.74C158.638 150.26 158.078 150.02 157.385 150.02C156.692 150.02 156.132 150.26 155.705 150.74C155.278 151.22 155.065 151.973 155.065 153C155.065 154.027 155.272 154.787 155.685 155.28C156.112 155.773 156.678 156.02 157.385 156.02ZM165.162 158.08V150.58C165.162 150.153 165.149 149.72 165.122 149.28C165.095 148.827 165.055 148.38 165.002 147.94H167.902L168.122 149.82H167.882C168.215 149.153 168.689 148.64 169.302 148.28C169.915 147.92 170.629 147.74 171.442 147.74C172.629 147.74 173.515 148.087 174.102 148.78C174.702 149.46 175.002 150.52 175.002 151.96V158.08H171.982V152.1C171.982 151.367 171.849 150.847 171.582 150.54C171.315 150.233 170.915 150.08 170.382 150.08C169.715 150.08 169.182 150.293 168.782 150.72C168.382 151.133 168.182 151.693 168.182 152.4V158.08H165.162ZM182.308 158.3C181.228 158.3 180.281 158.087 179.468 157.66C178.654 157.233 178.028 156.62 177.588 155.82C177.148 155.02 176.928 154.073 176.928 152.98C176.928 151.873 177.148 150.933 177.588 150.16C178.041 149.373 178.668 148.773 179.468 148.36C180.281 147.947 181.228 147.74 182.308 147.74C182.988 147.74 183.648 147.84 184.288 148.04C184.941 148.24 185.474 148.52 185.888 148.88L185.008 150.96C184.674 150.653 184.288 150.427 183.848 150.28C183.421 150.12 183.008 150.04 182.608 150.04C181.794 150.04 181.161 150.293 180.708 150.8C180.254 151.307 180.028 152.04 180.028 153C180.028 153.96 180.254 154.693 180.708 155.2C181.161 155.707 181.794 155.96 182.608 155.96C182.994 155.96 183.401 155.887 183.828 155.74C184.268 155.593 184.661 155.373 185.008 155.08L185.888 157.14C185.461 157.5 184.921 157.787 184.268 158C183.628 158.2 182.974 158.3 182.308 158.3ZM192.508 158.3C190.748 158.3 189.375 157.827 188.388 156.88C187.401 155.933 186.908 154.647 186.908 153.02C186.908 151.967 187.115 151.047 187.528 150.26C187.955 149.473 188.541 148.86 189.288 148.42C190.048 147.967 190.935 147.74 191.948 147.74C192.948 147.74 193.781 147.953 194.448 148.38C195.128 148.807 195.635 149.407 195.968 150.18C196.315 150.94 196.488 151.827 196.488 152.84V153.54H189.388V152.04H194.288L193.948 152.32C193.948 151.48 193.775 150.847 193.428 150.42C193.095 149.98 192.608 149.76 191.968 149.76C191.261 149.76 190.715 150.02 190.328 150.54C189.955 151.06 189.768 151.807 189.768 152.78V153.1C189.768 154.087 190.008 154.82 190.488 155.3C190.981 155.78 191.688 156.02 192.608 156.02C193.155 156.02 193.668 155.953 194.148 155.82C194.641 155.673 195.108 155.447 195.548 155.14L196.388 157.14C195.881 157.513 195.295 157.8 194.628 158C193.975 158.2 193.268 158.3 192.508 158.3Z" fill="#DD2590"/>
</g>
</svg>
